<?xml version="1.0" encoding="utf-8"?>
<!-- Generator: Adobe Illustrator 25.4.1, SVG Export Plug-In . SVG Version: 6.00 Build 0)  -->
<svg version="1.1" id="Capa_1" xmlns="http://www.w3.org/2000/svg" xmlns:xlink="http://www.w3.org/1999/xlink" x="0px" y="0px"
	 viewBox="0 0 900 900" style="enable-background:new 0 0 900 900;" xml:space="preserve">
<style type="text/css">
	.st0{fill:#FFFFFF;}
	.st1{fill:#DEB44E;}
	.st2{fill:#4EDEDA;}
	.st3{fill:#9DF562;}
	.st4{display:none;fill:#1F77B4;}
	.st5{font-family:'Arial-ItalicMT';}
	.st6{font-size:10px;}
</style>
<rect id="backgorund" class="st0" width="900" height="900"/>
<g id="viz" transform="translate(450,450)">
	<path class="st1" d="M1-144.7C80.9-144.1,145.2-78.9,144.7,1C144.1,80.9,78.9,145.2-1,144.7c-7.8-0.1-15.5-0.7-23.1-2l12.4-70.3
		c40,6.5,77.6-20.7,84.1-60.6c6.5-40-20.7-77.6-60.6-84.1C8.2-73,4.6-73.3,1-73.3V-144.7z"/>
	<path class="st2" d="M-26.1,142.3c-78.6-14.4-130.6-89.8-116.2-168.4c4.5-24.3,15.1-47.1,30.8-66.1l54.6,45.9
		C-82.4-15-77.7,31.2-46.4,56.8c9.4,7.7,20.7,12.9,32.6,15.2L-26.1,142.3z"/>
	<path class="st3" d="M-110.2-93.8c27.3-32,67.1-50.6,109.2-50.9v71.3c-21,0.3-40.8,9.5-54.5,25.4L-110.2-93.8z"/>
	<path class="st1" d="M1-218c84,0.4,160.3,49,196.2,125l-64.7,30.1C108.4-113.7,57.3-146.3,1-146.7V-218z"/>
	<path class="st1" d="M198-91.2c15.7,34.1,22.4,71.8,19.3,109.2l-71.1-6.2c2-25-2.4-50.1-12.8-72.9L198-91.2z"/>
	<path class="st1" d="M217.1,20c-5.2,56.9-32.6,109.4-76.2,146.4L95,111.7c29.1-24.8,47.4-59.9,51-97.9L217.1,20z"/>
	<path class="st1" d="M139.4,167.6c-49,40.7-113.4,58-176.2,47.2l12.4-70.3c42.1,7.1,85.1-4.4,118-31.6L139.4,167.6z"/>
	<path class="st2" d="M-38.8,214.5c-18.1-3.3-35.7-8.8-52.4-16.5l30.1-64.7c11,5.1,22.7,8.7,34.6,10.9L-38.8,214.5z"/>
	<path class="st2" d="M-93,197.2c-5.1-2.4-10.2-5-15.1-7.9l35.7-61.8c3.1,1.8,6.3,3.4,9.6,5L-93,197.2z"/>
	<path class="st2" d="M-109.9,188.3c-10.4-6.1-20.2-13-29.5-20.7l45.9-54.6c6.1,5,12.5,9.5,19.3,13.5L-109.9,188.3z"/>
	<path class="st2" d="M-140.9,166.4C-189.5,125.2-217.7,64.7-218,1h71.3c0.3,42.7,19.1,83.1,51.6,110.7L-140.9,166.4z"/>
	<path class="st2" d="M-218-1c0.1-12,1.1-24,3.1-35.9l70.3,12.4c-1.3,7.8-2,15.6-2.1,23.5H-218z"/>
	<path class="st2" d="M-214.5-38.8c1-5.6,2.2-11.1,3.7-16.6l68.9,18.5c-0.9,3.5-1.7,7-2.3,10.5L-214.5-38.8z"/>
	<path class="st2" d="M-210.3-57.4c1.5-5.5,3.2-10.9,5.1-16.2l67,24.4c-1.2,3.4-2.3,6.8-3.2,10.3L-210.3-57.4z"/>
	<path class="st2" d="M-204.5-75.5c8.6-23.2,21-44.8,36.9-63.9l54.6,45.9c-10.5,12.7-18.8,27-24.5,42.4L-204.5-75.5z"/>
	<path class="st3" d="M-166.4-140.9c3.7-4.3,7.5-8.5,11.5-12.5l50.4,50.4c-2.5,2.6-5,5.2-7.3,8L-166.4-140.9z"/>
	<path class="st3" d="M-153.4-154.9c4-4,8.2-7.8,12.5-11.5l45.9,54.6c-2.7,2.3-5.4,4.8-8,7.3L-153.4-154.9z"/>
	<path class="st3" d="M-139.4-167.6c4.4-3.6,8.9-7.1,13.5-10.4l40.9,58.4c-2.9,2.1-5.8,4.3-8.6,6.6L-139.4-167.6z"/>
	<path class="st3" d="M-124.2-179.1c9.9-6.9,20.3-12.9,31.2-18l30.1,64.7c-7.1,3.4-13.9,7.3-20.4,11.8L-124.2-179.1z"/>
	<path class="st3" d="M-91.2-198c22.5-10.4,46.6-16.8,71.2-19.1l6.2,71.1c-16.4,1.5-32.4,5.8-47.3,12.7L-91.2-198z"/>
	<path class="st3" d="M-18-217.3c5.7-0.5,11.3-0.7,17-0.7v71.3c-3.6,0-7.2,0.2-10.8,0.5L-18-217.3z"/>
	<path class="st1" d="M1-291.3c33.3,0.1,66.4,5.9,97.7,17.2l-24.4,67C50.8-215.5,26-219.9,1-220V-291.3z"/>
	<path class="st1" d="M100.6-273.4c31.3,11.5,60.3,28.3,85.9,49.6l-45.9,54.6c-19.2-16-41-28.6-64.5-37.2L100.6-273.4z"/>
	<path class="st1" d="M188-222.5c32,27,57.8,60.6,75.6,98.5L199-93.9c-13.4-28.4-32.8-53.7-56.8-74L188-222.5z"/>
	<path class="st1" d="M264.5-122.2c14,30.2,22.7,62.7,25.7,95.8l-71.1,6.2c-2.3-24.9-8.8-49.2-19.3-71.9L264.5-122.2z"/>
	<path class="st1" d="M290.3-24.4c1.4,16.2,1.4,32.6,0,48.8l-71.1-6.2c1-12.1,1-24.3,0-36.4L290.3-24.4z"/>
	<path class="st1" d="M290.1,26.4c-0.7,7.8-1.7,15.5-3.1,23.2l-70.3-12.4c1-5.7,1.7-11.3,2.2-17L290.1,26.4z"/>
	<path class="st1" d="M286.7,51.6c-1.4,7.7-3.1,15.3-5.1,22.9L212.8,56c1.5-5.5,2.7-11.1,3.7-16.8L286.7,51.6z"/>
	<path class="st1" d="M281.1,76.4c-2,7.5-4.4,15-7,22.3l-67-24.4c1.9-5.4,3.7-10.9,5.2-16.4L281.1,76.4z"/>
	<path class="st1" d="M273.4,100.6c-2.7,7.3-5.7,14.5-9,21.6l-64.7-30.1c2.4-5.2,4.6-10.5,6.6-15.9L273.4,100.6z"/>
	<path class="st1" d="M263.6,124c-3.3,7.1-6.9,14-10.8,20.8L191,109.1c2.8-5,5.5-10.1,7.9-15.3L263.6,124z"/>
	<path class="st1" d="M251.8,146.5c-3.9,6.7-8.1,13.3-12.6,19.7l-58.4-40.9c3.3-4.7,6.3-9.5,9.2-14.5L251.8,146.5z"/>
	<path class="st1" d="M238.1,167.9c-4.5,6.4-9.3,12.6-14.3,18.6l-54.6-45.9c3.7-4.4,7.2-9,10.5-13.6L238.1,167.9z"/>
	<path class="st1" d="M222.5,188c-5,6-10.3,11.7-15.8,17.3l-50.4-50.4c4-4.1,7.9-8.3,11.6-12.7L222.5,188z"/>
	<path class="st1" d="M205.3,206.7c-5.5,5.5-11.3,10.8-17.3,15.8l-45.9-54.6c4.4-3.7,8.6-7.6,12.7-11.6L205.3,206.7z"/>
	<path class="st1" d="M186.5,223.8c-12.5,10.4-25.9,19.8-40,28L110.9,190c10.5-6.1,20.4-13.1,29.8-20.9L186.5,223.8z"/>
	<path class="st1" d="M144.8,252.8c-28.9,16.6-60.4,28-93.2,33.9l-12.4-70.3c24.6-4.5,48.2-13.1,69.9-25.5L144.8,252.8z"/>
	<path class="st1" d="M49.6,287.1c-16.1,2.8-32.3,4.2-48.6,4.3V220c12.1-0.1,24.3-1.1,36.2-3.2L49.6,287.1z"/>
	<path class="st1" d="M-1,291.3c-16.3-0.1-32.6-1.5-48.6-4.3l12.4-70.3c12,2.1,24.1,3.1,36.2,3.2V291.3z"/>
	<path class="st2" d="M-51.6,286.7c-7.7-1.4-15.3-3.1-22.9-5.1l18.5-68.9c5.5,1.5,11.1,2.7,16.8,3.7L-51.6,286.7z"/>
	<path class="st2" d="M-76.4,281.1c-7.5-2-15-4.4-22.3-7l24.4-67c5.4,1.9,10.9,3.7,16.4,5.2L-76.4,281.1z"/>
	<path class="st2" d="M-100.6,273.4c-7.3-2.7-14.5-5.7-21.6-9l30.1-64.7c5.2,2.4,10.5,4.6,15.9,6.6L-100.6,273.4z"/>
	<path class="st2" d="M-124,263.6c-7.1-3.3-14-6.9-20.8-10.8l35.7-61.8c5,2.8,10.1,5.5,15.3,7.9L-124,263.6z"/>
	<path class="st2" d="M-146.5,251.8c-6.7-3.9-13.3-8.1-19.7-12.6l40.9-58.4c4.7,3.3,9.5,6.3,14.5,9.2L-146.5,251.8z"/>
	<path class="st2" d="M-167.9,238.1c-6.4-4.5-12.6-9.3-18.6-14.3l45.9-54.6c4.4,3.7,9,7.2,13.6,10.5L-167.9,238.1z"/>
	<path class="st2" d="M-188,222.5c-6-5-11.7-10.3-17.3-15.8l50.4-50.4c4.1,4,8.3,7.9,12.7,11.6L-188,222.5z"/>
	<path class="st2" d="M-206.7,205.3c-5.5-5.5-10.8-11.3-15.8-17.3l54.6-45.9c3.7,4.4,7.6,8.6,11.6,12.7L-206.7,205.3z"/>
	<path class="st2" d="M-223.8,186.5c-5-6-9.8-12.2-14.3-18.6l58.4-40.9c3.3,4.7,6.8,9.2,10.5,13.6L-223.8,186.5z"/>
	<path class="st2" d="M-239.2,166.3c-19-27.4-33.2-57.8-41.9-89.9l68.9-18.5c6.6,24.1,17.2,46.9,31.5,67.5L-239.2,166.3z"/>
	<path class="st2" d="M-281.7,74.4c-6.3-24-9.6-48.6-9.7-73.4h71.3c0.1,18.6,2.5,37,7.2,55L-281.7,74.4z"/>
	<path class="st2" d="M-291.3-1c0-7.8,0.4-15.6,1-23.4l71.1,6.2C-219.7-12.5-220-6.7-220-1H-291.3z"/>
	<path class="st2" d="M-290.1-26.4c0.7-7.8,1.7-15.5,3.1-23.2l70.3,12.4c-1,5.7-1.7,11.3-2.2,17L-290.1-26.4z"/>
	<path class="st2" d="M-286.7-51.6c1.4-7.7,3.1-15.3,5.1-22.9l68.9,18.5c-1.5,5.5-2.7,11.1-3.7,16.8L-286.7-51.6z"/>
	<path class="st2" d="M-281.1-76.4c2-7.5,4.4-15,7-22.3l67,24.4c-1.9,5.4-3.7,10.9-5.2,16.4L-281.1-76.4z"/>
	<path class="st2" d="M-273.4-100.6c2.7-7.3,5.7-14.5,9-21.6l64.7,30.1c-2.4,5.2-4.6,10.5-6.6,15.9L-273.4-100.6z"/>
	<path class="st2" d="M-263.6-124c3.3-7.1,6.9-14,10.8-20.8l61.8,35.7c-2.8,5-5.5,10.1-7.9,15.3L-263.6-124z"/>
	<path class="st2" d="M-251.8-146.5c3.9-6.7,8.1-13.3,12.6-19.7l58.4,40.9c-3.3,4.7-6.3,9.5-9.2,14.5L-251.8-146.5z"/>
	<path class="st2" d="M-238.1-167.9c4.5-6.4,9.3-12.6,14.3-18.6l54.6,45.9c-3.7,4.4-7.2,9-10.5,13.6L-238.1-167.9z"/>
	<path class="st3" d="M-222.5-188c5-6,10.3-11.7,15.8-17.3l50.4,50.4c-4,4.1-7.9,8.3-11.6,12.7L-222.5-188z"/>
	<path class="st3" d="M-205.3-206.7c5.5-5.5,11.3-10.8,17.3-15.8l45.9,54.6c-4.4,3.7-8.6,7.6-12.7,11.6L-205.3-206.7z"/>
	<path class="st3" d="M-186.5-223.8c6-5,12.2-9.8,18.6-14.3l40.9,58.4c-4.7,3.3-9.2,6.8-13.6,10.5L-186.5-223.8z"/>
	<path class="st3" d="M-166.3-239.2c6.4-4.5,13-8.7,19.7-12.6l35.7,61.8c-5,2.9-9.8,6-14.5,9.2L-166.3-239.2z"/>
	<path class="st3" d="M-144.8-252.8c6.8-3.9,13.7-7.5,20.8-10.8l30.1,64.7c-5.2,2.4-10.3,5.1-15.3,7.9L-144.8-252.8z"/>
	<path class="st3" d="M-122.2-264.5c7.1-3.3,14.3-6.3,21.6-9l24.4,67c-5.4,2-10.7,4.2-15.9,6.6L-122.2-264.5z"/>
	<path class="st3" d="M-98.7-274.1c7.3-2.6,14.8-5,22.3-7l18.5,68.9c-5.5,1.5-11,3.2-16.4,5.2L-98.7-274.1z"/>
	<path class="st3" d="M-74.4-281.7c7.5-2,15.2-3.7,22.9-5.1l12.4,70.3c-5.6,1-11.2,2.3-16.8,3.7L-74.4-281.7z"/>
	<path class="st3" d="M-49.6-287.1c7.7-1.3,15.4-2.3,23.2-3.1l6.2,71.1c-5.7,0.5-11.4,1.3-17,2.2L-49.6-287.1z"/>
	<path class="st3" d="M-24.4-290.3c7.8-0.7,15.6-1,23.4-1v71.3c-5.7,0-11.5,0.3-17.2,0.8L-24.4-290.3z"/>
	<path class="st1" d="M1-364.7c9.9,0,19.9,0.5,29.8,1.3l-6.2,71.1c-7.8-0.7-15.7-1-23.6-1V-364.7z"/>
	<path class="st1" d="M32.8-363.2c9.9,0.9,19.8,2.2,29.6,3.9L50-289c-7.8-1.3-15.6-2.4-23.4-3.1L32.8-363.2z"/>
	<path class="st1" d="M64.3-359c9.8,1.8,19.5,3.9,29.1,6.5L75-283.6c-7.6-2-15.3-3.7-23-5.1L64.3-359z"/>
	<path class="st1" d="M95.3-352c9.6,2.6,19.1,5.6,28.4,9l-24.4,67c-7.4-2.7-14.9-5-22.5-7.1L95.3-352z"/>
	<path class="st1" d="M125.7-342.3c9.3,3.4,18.5,7.2,27.5,11.4l-30.1,64.7c-7.1-3.3-14.4-6.3-21.8-9L125.7-342.3z"/>
	<path class="st1" d="M155-330.1c9,4.2,17.8,8.8,26.4,13.8l-35.7,61.8c-6.8-3.9-13.8-7.5-20.9-10.9L155-330.1z"/>
	<path class="st1" d="M183.2-315.3c8.6,5,17,10.3,25.1,16l-40.9,58.4c-6.5-4.5-13.1-8.7-19.9-12.7L183.2-315.3z"/>
	<path class="st1" d="M210-298.1c8.1,5.7,16,11.8,23.7,18.2l-45.9,54.6c-6-5-12.3-9.8-18.7-14.4L210-298.1z"/>
	<path class="st1" d="M235.2-278.7c7.6,6.4,14.9,13.1,22,20.1l-50.4,50.4c-5.6-5.5-11.4-10.9-17.4-15.9L235.2-278.7z"/>
	<path class="st1" d="M258.6-257.2c7,7,13.7,14.4,20.1,22l-54.6,45.9c-5.1-6-10.4-11.8-15.9-17.4L258.6-257.2z"/>
	<path class="st1" d="M280-233.6c6.4,7.6,12.4,15.5,18.2,23.7l-58.4,40.9c-4.5-6.4-9.3-12.7-14.4-18.7L280-233.6z"/>
	<path class="st1" d="M299.3-208.3c5.7,8.2,11,16.5,16,25.1l-61.8,35.7c-4-6.8-8.2-13.4-12.7-19.9L299.3-208.3z"/>
	<path class="st1" d="M316.3-181.5c4.9,8.6,9.5,17.4,13.8,26.4l-64.7,30.1c-3.3-7.1-7-14.1-10.9-20.9L316.3-181.5z"/>
	<path class="st1" d="M330.9-153.2c4.2,9,8,18.2,11.4,27.5l-67,24.4c-2.7-7.4-5.7-14.7-9-21.8L330.9-153.2z"/>
	<path class="st1" d="M343-123.8c3.4,9.4,6.4,18.8,9,28.4l-68.9,18.5c-2.1-7.6-4.4-15.1-7.1-22.5L343-123.8z"/>
	<path class="st1" d="M352.5-93.4c2.5,9.6,4.7,19.3,6.5,29.1l-70.2,12.4c-1.4-7.7-3.1-15.4-5.1-23L352.5-93.4z"/>
	<path class="st1" d="M359.3-62.3c1.7,9.8,3,19.7,3.9,29.6l-71.1,6.2c-0.7-7.8-1.7-15.6-3.1-23.4L359.3-62.3z"/>
	<path class="st1" d="M363.4-30.8c0.8,9.9,1.3,19.8,1.3,29.8h-71.3c0-7.9-0.4-15.7-1-23.6L363.4-30.8z"/>
	<path class="st1" d="M364.7,1c0,9.9-0.5,19.9-1.3,29.8l-71.1-6.2c0.7-7.8,1-15.7,1-23.6H364.7z"/>
	<path class="st4" d="M363.2,32.8c-0.9,9.9-2.2,19.8-3.9,29.6L289,50c1.3-7.8,2.4-15.6,3.1-23.4L363.2,32.8z"/>
	<path class="st4" d="M359,64.3c-1.8,9.8-3.9,19.5-6.5,29.1L283.6,75c2-7.6,3.7-15.3,5.1-23L359,64.3z"/>
	<path class="st4" d="M352,95.3c-2.6,9.6-5.6,19.1-9,28.4l-67-24.4c2.7-7.4,5-14.9,7.1-22.5L352,95.3z"/>
	<path class="st4" d="M342.3,125.7c-3.4,9.3-7.2,18.5-11.4,27.5l-64.7-30.1c3.3-7.1,6.3-14.4,9-21.8L342.3,125.7z"/>
	<path class="st4" d="M330.1,155c-4.2,9-8.8,17.8-13.8,26.4l-61.8-35.7c3.9-6.8,7.5-13.8,10.9-20.9L330.1,155z"/>
	<path class="st4" d="M315.3,183.2c-5,8.6-10.3,17-16,25.1l-58.4-40.9c4.5-6.5,8.7-13.1,12.7-19.9L315.3,183.2z"/>
	<path class="st4" d="M298.1,210c-5.7,8.1-11.8,16-18.2,23.7l-54.6-45.9c5-6,9.8-12.3,14.4-18.7L298.1,210z"/>
	<path class="st4" d="M278.7,235.2c-6.4,7.6-13.1,14.9-20.1,22l-50.4-50.4c5.5-5.6,10.9-11.4,15.9-17.4L278.7,235.2z"/>
	<path class="st4" d="M257.2,258.6c-7,7-14.4,13.7-22,20.1l-45.9-54.6c6-5.1,11.8-10.4,17.4-15.9L257.2,258.6z"/>
	<path class="st1" d="M233.6,280c-7.6,6.4-15.5,12.4-23.7,18.2l-40.9-58.4c6.4-4.5,12.7-9.3,18.7-14.4L233.6,280z"/>
	<path class="st1" d="M208.3,299.3c-8.2,5.7-16.5,11-25.1,16l-35.7-61.8c6.8-4,13.4-8.2,19.9-12.7L208.3,299.3z"/>
	<path class="st1" d="M181.5,316.3c-8.6,4.9-17.4,9.5-26.4,13.8l-30.1-64.7c7.1-3.3,14.1-7,20.9-10.9L181.5,316.3z"/>
	<path class="st1" d="M153.2,330.9c-9,4.2-18.2,8-27.5,11.4l-24.4-67c7.4-2.7,14.7-5.7,21.8-9L153.2,330.9z"/>
	<path class="st1" d="M123.8,343c-9.4,3.4-18.8,6.4-28.4,9l-18.5-68.9c7.6-2.1,15.1-4.4,22.5-7.1L123.8,343z"/>
	<path class="st1" d="M93.4,352.5c-9.6,2.5-19.3,4.7-29.1,6.5l-12.4-70.2c7.7-1.4,15.4-3.1,23-5.1L93.4,352.5z"/>
	<path class="st1" d="M62.3,359.3c-9.8,1.7-19.7,3-29.6,3.9l-6.2-71.1c7.8-0.7,15.6-1.7,23.4-3.1L62.3,359.3z"/>
	<path class="st1" d="M30.8,363.4c-9.9,0.8-19.8,1.3-29.8,1.3v-71.3c7.9,0,15.7-0.4,23.6-1L30.8,363.4z"/>
	<path class="st1" d="M-1,364.7c-9.9,0-19.9-0.5-29.8-1.3l6.2-71.1c7.8,0.7,15.7,1,23.6,1V364.7z"/>
	<path class="st1" d="M-32.8,363.2c-9.9-0.9-19.8-2.2-29.6-3.9L-50,289c7.8,1.3,15.6,2.4,23.4,3.1L-32.8,363.2z"/>
	<path class="st2" d="M-64.3,359c-9.8-1.8-19.5-3.9-29.1-6.5l18.5-68.9c7.6,2,15.3,3.7,23,5.1L-64.3,359z"/>
	<path class="st2" d="M-95.3,352c-9.6-2.6-19.1-5.6-28.4-9l24.4-67c7.4,2.7,14.9,5,22.5,7.1L-95.3,352z"/>
	<path class="st2" d="M-125.7,342.3c-9.3-3.4-18.5-7.2-27.5-11.4l30.1-64.7c7.1,3.3,14.4,6.3,21.8,9L-125.7,342.3z"/>
	<path class="st4" d="M-155,330.1c-9-4.2-17.8-8.8-26.4-13.8l35.7-61.8c6.8,3.9,13.8,7.5,20.9,10.9L-155,330.1z"/>
	<path class="st4" d="M-183.2,315.3c-8.6-5-17-10.3-25.1-16l40.9-58.4c6.5,4.5,13.1,8.7,19.9,12.7L-183.2,315.3z"/>
	<path class="st4" d="M-210,298.1c-8.1-5.7-16-11.8-23.7-18.2l45.9-54.6c6,5,12.3,9.8,18.7,14.4L-210,298.1z"/>
	<path class="st4" d="M-235.2,278.7c-7.6-6.4-14.9-13.1-22-20.1l50.4-50.4c5.6,5.5,11.4,10.9,17.4,15.9L-235.2,278.7z"/>
	<path class="st4" d="M-258.6,257.2c-7-7-13.7-14.4-20.1-22l54.6-45.9c5.1,6,10.4,11.8,15.9,17.4L-258.6,257.2z"/>
	<path class="st4" d="M-280,233.6c-6.4-7.6-12.4-15.5-18.2-23.7l58.4-40.9c4.5,6.4,9.3,12.7,14.4,18.7L-280,233.6z"/>
	<path class="st2" d="M-299.3,208.3c-5.7-8.2-11-16.5-16-25.1l61.8-35.7c4,6.8,8.2,13.4,12.7,19.9L-299.3,208.3z"/>
	<path class="st2" d="M-316.3,181.5c-4.9-8.6-9.5-17.4-13.8-26.4l64.7-30.1c3.3,7.1,7,14.1,10.9,20.9L-316.3,181.5z"/>
	<path class="st2" d="M-330.9,153.2c-4.2-9-8-18.2-11.4-27.5l67-24.4c2.7,7.4,5.7,14.7,9,21.8L-330.9,153.2z"/>
	<path class="st2" d="M-343,123.8c-3.4-9.4-6.4-18.8-9-28.4l68.9-18.5c2.1,7.6,4.4,15.1,7.1,22.5L-343,123.8z"/>
	<path class="st2" d="M-352.5,93.4c-2.5-9.6-4.7-19.3-6.5-29.1l70.2-12.4c1.4,7.7,3.1,15.4,5.1,23L-352.5,93.4z"/>
	<path class="st2" d="M-359.3,62.3c-1.7-9.8-3-19.7-3.9-29.6l71.1-6.2c0.7,7.8,1.7,15.6,3.1,23.4L-359.3,62.3z"/>
	<path class="st2" d="M-363.4,30.8c-0.8-9.9-1.3-19.8-1.3-29.8h71.3c0,7.9,0.4,15.7,1,23.6L-363.4,30.8z"/>
	<path class="st4" d="M-364.7-1c0-9.9,0.5-19.9,1.3-29.8l71.1,6.2c-0.7,7.8-1,15.7-1,23.6H-364.7z"/>
	<path class="st4" d="M-363.2-32.8c0.9-9.9,2.2-19.8,3.9-29.6L-289-50c-1.3,7.8-2.4,15.6-3.1,23.4L-363.2-32.8z"/>
	<path class="st4" d="M-359-64.3c1.8-9.8,3.9-19.5,6.5-29.1l68.9,18.5c-2,7.6-3.7,15.3-5.1,23L-359-64.3z"/>
	<path class="st4" d="M-352-95.3c2.6-9.6,5.6-19.1,9-28.4l67,24.4c-2.7,7.4-5,14.9-7.1,22.5L-352-95.3z"/>
	<path class="st4" d="M-342.3-125.7c3.4-9.3,7.2-18.5,11.4-27.5l64.7,30.1c-3.3,7.1-6.3,14.4-9,21.8L-342.3-125.7z"/>
	<path class="st4" d="M-330.1-155c4.2-9,8.8-17.8,13.8-26.4l61.8,35.7c-3.9,6.8-7.5,13.8-10.9,20.9L-330.1-155z"/>
	<path class="st4" d="M-315.3-183.2c5-8.6,10.3-17,16-25.1l58.4,40.9c-4.5,6.5-8.7,13.1-12.7,19.9L-315.3-183.2z"/>
	<path class="st4" d="M-298.1-210c5.7-8.1,11.8-16,18.2-23.7l54.6,45.9c-5,6-9.8,12.3-14.4,18.7L-298.1-210z"/>
	<path class="st4" d="M-278.7-235.2c6.4-7.6,13.1-14.9,20.1-22l50.4,50.4c-5.5,5.6-10.9,11.4-15.9,17.4L-278.7-235.2z"/>
	<path class="st4" d="M-257.2-258.6c7-7,14.4-13.7,22-20.1l45.9,54.6c-6,5.1-11.8,10.4-17.4,15.9L-257.2-258.6z"/>
	<path class="st4" d="M-233.6-280c7.6-6.4,15.5-12.4,23.7-18.2l40.9,58.4c-6.4,4.5-12.7,9.3-18.7,14.4L-233.6-280z"/>
	<path class="st3" d="M-208.3-299.3c8.2-5.7,16.5-11,25.1-16l35.7,61.8c-6.8,4-13.4,8.2-19.9,12.7L-208.3-299.3z"/>
	<path class="st3" d="M-181.5-316.3c8.6-4.9,17.4-9.5,26.4-13.8l30.1,64.7c-7.1,3.3-14.1,7-20.9,10.9L-181.5-316.3z"/>
	<path class="st3" d="M-153.2-330.9c9-4.2,18.2-8,27.5-11.4l24.4,67c-7.4,2.7-14.7,5.7-21.8,9L-153.2-330.9z"/>
	<path class="st3" d="M-123.8-343c9.4-3.4,18.8-6.4,28.4-9l18.5,68.9c-7.6,2.1-15.1,4.4-22.5,7.1L-123.8-343z"/>
	<path class="st3" d="M-93.4-352.5c9.6-2.5,19.3-4.7,29.1-6.5l12.4,70.2c-7.7,1.4-15.4,3.1-23,5.1L-93.4-352.5z"/>
	<path class="st3" d="M-62.3-359.3c9.8-1.7,19.7-3,29.6-3.9l6.2,71.1c-7.8,0.7-15.6,1.7-23.4,3.1L-62.3-359.3z"/>
	<path class="st3" d="M-30.8-363.4c9.9-0.8,19.8-1.3,29.8-1.3v71.3c-7.9,0-15.7,0.4-23.6,1L-30.8-363.4z"/>
	<path class="st1" d="M1-438c12.1,0,24.1,0.6,36.2,1.6L31-365.4c-10-0.8-20-1.3-30-1.3V-438z"/>
	<path class="st1" d="M39.2-436.2c12,1.1,24,2.7,35.9,4.7l-12.4,70.2c-9.9-1.7-19.8-3-29.7-3.9L39.2-436.2z"/>
	<path class="st1" d="M77-431.2c11.9,2.1,23.7,4.7,35.4,7.8l-18.5,68.9c-9.7-2.6-19.4-4.7-29.3-6.5L77-431.2z"/>
	<path class="st1" d="M114.3-422.8c11.7,3.2,23.2,6.8,34.5,10.9l-24.4,67c-9.4-3.4-18.9-6.4-28.6-9L114.3-422.8z"/>
	<path class="st1" d="M150.7-411.2c11.3,4.2,22.5,8.8,33.5,13.9l-30.1,64.7c-9.1-4.2-18.3-8-27.7-11.5L150.7-411.2z"/>
	<path class="st1" d="M186-396.5c10.9,5.1,21.6,10.7,32.1,16.7L182.5-318c-8.7-5-17.5-9.6-26.6-13.8L186-396.5z"/>
	<path class="st1" d="M219.9-378.8c10.4,6.1,20.6,12.6,30.5,19.5l-40.9,58.4c-8.2-5.7-16.6-11.1-25.3-16.1L219.9-378.8z"/>
	<path class="st1" d="M252-358.2c9.9,6.9,19.5,14.3,28.7,22l-45.9,54.6c-7.7-6.4-15.6-12.5-23.8-18.3L252-358.2z"/>
	<path class="st1" d="M282.3-334.9c9.2,7.8,18.1,15.9,26.7,24.5L258.6-260c-7.1-7.1-14.5-13.8-22.1-20.3L282.3-334.9z"/>
	<path class="st1" d="M310.4-309c8.5,8.6,16.7,17.5,24.5,26.7l-54.6,45.9c-6.4-7.6-13.2-15-20.3-22.1L310.4-309z"/>
	<path class="st1" d="M336.2-280.8c7.7,9.3,15.1,18.9,22,28.7l-58.4,40.9c-5.8-8.2-11.8-16.1-18.3-23.8L336.2-280.8z"/>
	<path class="st1" d="M359.4-250.4c6.9,9.9,13.4,20.1,19.5,30.5L317-184.2c-5-8.6-10.4-17.1-16.1-25.3L359.4-250.4z"/>
	<path class="st1" d="M379.8-218.1c6,10.5,11.6,21.2,16.7,32.1l-64.7,30.1c-4.3-9.1-8.9-17.9-13.8-26.6L379.8-218.1z"/>
	<path class="st1" d="M397.4-184.2c5.1,11,9.7,22.1,13.9,33.5l-67,24.4c-3.4-9.4-7.3-18.6-11.5-27.7L397.4-184.2z"/>
	<path class="st1" d="M411.9-148.9c4.1,11.4,7.7,22.9,10.9,34.5l-68.9,18.5c-2.6-9.7-5.6-19.2-9-28.6L411.9-148.9z"/>
	<path class="st1" d="M423.3-112.4c3.1,11.7,5.7,23.5,7.8,35.4l-70.2,12.4c-1.8-9.8-3.9-19.6-6.5-29.3L423.3-112.4z"/>
	<path class="st1" d="M431.5-75.1c2.1,11.9,3.6,23.9,4.7,35.9L365.2-33c-0.9-10-2.2-19.9-3.9-29.7L431.5-75.1z"/>
	<path class="st1" d="M436.4-37.2c1,12,1.6,24.1,1.6,36.2h-71.3c0-10-0.5-20-1.3-30L436.4-37.2z"/>
	<path class="st1" d="M438,1c0,12.1-0.6,24.1-1.6,36.2L365.4,31c0.8-10,1.3-20,1.3-30H438z"/>
	<path class="st1" d="M436.2,39.2c-1.1,12-2.7,24-4.7,35.9l-70.2-12.4c1.7-9.9,3-19.8,3.9-29.7L436.2,39.2z"/>
	<path class="st1" d="M431.2,77c-2.1,11.9-4.7,23.7-7.8,35.4l-68.9-18.5c2.6-9.7,4.7-19.4,6.5-29.3L431.2,77z"/>
	<path class="st1" d="M422.8,114.3c-3.2,11.7-6.8,23.2-10.9,34.5l-67-24.4c3.4-9.4,6.4-18.9,9-28.6L422.8,114.3z"/>
	<path class="st1" d="M411.2,150.7c-4.2,11.3-8.8,22.5-13.9,33.5l-64.7-30.1c4.2-9.1,8-18.3,11.5-27.7L411.2,150.7z"/>
	<path class="st1" d="M396.5,186c-5.1,10.9-10.7,21.6-16.7,32.1L318,182.5c5-8.7,9.6-17.5,13.8-26.6L396.5,186z"/>
	<path class="st1" d="M378.8,219.9c-6.1,10.4-12.6,20.6-19.5,30.5l-58.4-40.9c5.7-8.2,11.1-16.6,16.1-25.3L378.8,219.9z"/>
	<path class="st1" d="M358.2,252c-6.9,9.9-14.3,19.5-22,28.7l-54.6-45.9c6.4-7.7,12.5-15.6,18.3-23.8L358.2,252z"/>
	<path class="st1" d="M334.9,282.3c-7.8,9.2-15.9,18.1-24.5,26.7L260,258.6c7.1-7.1,13.8-14.5,20.3-22.1L334.9,282.3z"/>
	<path class="st1" d="M309,310.4c-8.6,8.5-17.5,16.7-26.7,24.5l-45.9-54.6c7.6-6.4,15-13.2,22.1-20.3L309,310.4z"/>
	<path class="st1" d="M280.8,336.2c-9.3,7.7-18.9,15.1-28.7,22l-40.9-58.4c8.2-5.8,16.1-11.8,23.8-18.3L280.8,336.2z"/>
	<path class="st1" d="M250.4,359.4c-9.9,6.9-20.1,13.4-30.5,19.5L184.2,317c8.6-5,17.1-10.4,25.3-16.1L250.4,359.4z"/>
	<path class="st1" d="M218.1,379.8c-10.5,6-21.2,11.6-32.1,16.7l-30.1-64.7c9.1-4.3,17.9-8.9,26.6-13.8L218.1,379.8z"/>
	<path class="st1" d="M184.2,397.4c-11,5.1-22.1,9.7-33.5,13.9l-24.4-67c9.4-3.4,18.6-7.3,27.7-11.5L184.2,397.4z"/>
	<path class="st1" d="M148.9,411.9c-11.4,4.1-22.9,7.7-34.5,10.9l-18.5-68.9c9.7-2.6,19.2-5.6,28.6-9L148.9,411.9z"/>
	<path class="st1" d="M112.4,423.3c-11.7,3.1-23.5,5.7-35.4,7.8l-12.4-70.2c9.8-1.8,19.6-3.9,29.3-6.5L112.4,423.3z"/>
	<path class="st1" d="M75.1,431.5c-11.9,2.1-23.9,3.6-35.9,4.7L33,365.2c10-0.9,19.9-2.2,29.7-3.9L75.1,431.5z"/>
	<path class="st1" d="M37.2,436.4c-12,1-24.1,1.6-36.2,1.6v-71.3c10,0,20-0.5,30-1.3L37.2,436.4z"/>
	<path class="st1" d="M-1,438c-12.1,0-24.1-0.6-36.2-1.6l6.2-71.1c10,0.8,20,1.3,30,1.3V438z"/>
	<path class="st1" d="M-39.2,436.2c-12-1.1-24-2.7-35.9-4.7l12.4-70.2c9.9,1.7,19.8,3,29.7,3.9L-39.2,436.2z"/>
	<path class="st2" d="M-77,431.2c-11.9-2.1-23.7-4.7-35.4-7.8l18.5-68.9c9.7,2.6,19.4,4.7,29.3,6.5L-77,431.2z"/>
	<path class="st2" d="M-114.3,422.8c-11.7-3.2-23.2-6.8-34.5-10.9l24.4-67c9.4,3.4,18.9,6.4,28.6,9L-114.3,422.8z"/>
	<path class="st2" d="M-150.7,411.2c-11.3-4.2-22.5-8.8-33.5-13.9l30.1-64.7c9.1,4.2,18.3,8,27.7,11.5L-150.7,411.2z"/>
	<path class="st2" d="M-186,396.5c-10.9-5.1-21.6-10.7-32.1-16.7l35.7-61.8c8.7,5,17.5,9.6,26.6,13.8L-186,396.5z"/>
	<path class="st2" d="M-219.9,378.8c-10.4-6.1-20.6-12.6-30.5-19.5l40.9-58.4c8.2,5.7,16.6,11.1,25.3,16.1L-219.9,378.8z"/>
	<path class="st2" d="M-252,358.2c-9.9-6.9-19.5-14.3-28.7-22l45.9-54.6c7.7,6.4,15.6,12.5,23.8,18.3L-252,358.2z"/>
	<path class="st2" d="M-282.3,334.9c-9.2-7.8-18.1-15.9-26.7-24.5l50.4-50.4c7.1,7.1,14.5,13.8,22.1,20.3L-282.3,334.9z"/>
	<path class="st2" d="M-310.4,309c-8.5-8.6-16.7-17.5-24.5-26.7l54.6-45.9c6.4,7.6,13.2,15,20.3,22.1L-310.4,309z"/>
	<path class="st2" d="M-336.2,280.8c-7.7-9.3-15.1-18.9-22-28.7l58.4-40.9c5.8,8.2,11.8,16.1,18.3,23.8L-336.2,280.8z"/>
	<path class="st2" d="M-359.4,250.4c-6.9-9.9-13.4-20.1-19.5-30.5l61.8-35.7c5,8.6,10.4,17.1,16.1,25.3L-359.4,250.4z"/>
	<path class="st2" d="M-379.8,218.1c-6-10.5-11.6-21.2-16.7-32.1l64.7-30.1c4.3,9.1,8.9,17.9,13.8,26.6L-379.8,218.1z"/>
	<path class="st2" d="M-397.4,184.2c-5.1-11-9.7-22.1-13.9-33.5l67-24.4c3.4,9.4,7.3,18.6,11.5,27.7L-397.4,184.2z"/>
	<path class="st2" d="M-411.9,148.9c-4.1-11.4-7.7-22.9-10.9-34.5l68.9-18.5c2.6,9.7,5.6,19.2,9,28.6L-411.9,148.9z"/>
	<path class="st2" d="M-423.3,112.4c-3.1-11.7-5.7-23.5-7.8-35.4l70.2-12.4c1.8,9.8,3.9,19.6,6.5,29.3L-423.3,112.4z"/>
	<path class="st2" d="M-431.5,75.1c-2.1-11.9-3.6-23.9-4.7-35.9l71.1-6.2c0.9,10,2.2,19.9,3.9,29.7L-431.5,75.1z"/>
	<path class="st2" d="M-436.4,37.2c-1-12-1.6-24.1-1.6-36.2h71.3c0,10,0.5,20,1.3,30L-436.4,37.2z"/>
	<path class="st2" d="M-438-1c0-12.1,0.6-24.1,1.6-36.2l71.1,6.2c-0.8,10-1.3,20-1.3,30H-438z"/>
	<path class="st2" d="M-436.2-39.2c1.1-12,2.7-24,4.7-35.9l70.2,12.4c-1.7,9.9-3,19.8-3.9,29.7L-436.2-39.2z"/>
	<path class="st2" d="M-431.2-77c2.1-11.9,4.7-23.7,7.8-35.4l68.9,18.5c-2.6,9.7-4.7,19.4-6.5,29.3L-431.2-77z"/>
	<path class="st2" d="M-422.8-114.3c3.2-11.7,6.8-23.2,10.9-34.5l67,24.4c-3.4,9.4-6.4,18.9-9,28.6L-422.8-114.3z"/>
	<path class="st2" d="M-411.2-150.7c4.2-11.3,8.8-22.5,13.9-33.5l64.7,30.1c-4.2,9.1-8,18.3-11.5,27.7L-411.2-150.7z"/>
	<path class="st2" d="M-396.5-186c5.1-10.9,10.7-21.6,16.7-32.1l61.8,35.7c-5,8.7-9.6,17.5-13.8,26.6L-396.5-186z"/>
	<path class="st2" d="M-378.8-219.9c6.1-10.4,12.6-20.6,19.5-30.5l58.4,40.9c-5.7,8.2-11.1,16.6-16.1,25.3L-378.8-219.9z"/>
	<path class="st2" d="M-358.2-252c6.9-9.9,14.3-19.5,22-28.7l54.6,45.9c-6.4,7.7-12.5,15.6-18.3,23.8L-358.2-252z"/>
	<path class="st3" d="M-334.9-282.3c7.8-9.2,15.9-18.1,24.5-26.7l50.4,50.4c-7.1,7.1-13.8,14.5-20.3,22.1L-334.9-282.3z"/>
	<path class="st3" d="M-309-310.4c8.6-8.5,17.5-16.7,26.7-24.5l45.9,54.6c-7.6,6.4-15,13.2-22.1,20.3L-309-310.4z"/>
	<path class="st3" d="M-280.8-336.2c9.3-7.7,18.9-15.1,28.7-22l40.9,58.4c-8.2,5.8-16.1,11.8-23.8,18.3L-280.8-336.2z"/>
	<path class="st3" d="M-250.4-359.4c9.9-6.9,20.1-13.4,30.5-19.5l35.7,61.8c-8.6,5-17.1,10.4-25.3,16.1L-250.4-359.4z"/>
	<path class="st3" d="M-218.1-379.8c10.5-6,21.2-11.6,32.1-16.7l30.1,64.7c-9.1,4.3-17.9,8.9-26.6,13.8L-218.1-379.8z"/>
	<path class="st3" d="M-184.2-397.4c11-5.1,22.1-9.7,33.5-13.9l24.4,67c-9.4,3.4-18.6,7.3-27.7,11.5L-184.2-397.4z"/>
	<path class="st3" d="M-148.9-411.9c11.4-4.1,22.9-7.7,34.5-10.9l18.5,68.9c-9.7,2.6-19.2,5.6-28.6,9L-148.9-411.9z"/>
	<path class="st3" d="M-112.4-423.3c11.7-3.1,23.5-5.7,35.4-7.8l12.4,70.2c-9.8,1.8-19.6,3.9-29.3,6.5L-112.4-423.3z"/>
	<path class="st3" d="M-75.1-431.5c11.9-2.1,23.9-3.6,35.9-4.7l6.2,71.1c-10,0.9-19.9,2.2-29.7,3.9L-75.1-431.5z"/>
	<path class="st3" d="M-37.2-436.4c12-1,24.1-1.6,36.2-1.6v71.3c-10,0-20,0.5-30,1.3L-37.2-436.4z"/>
</g>
<g id="labels" transform="translate(450,450)">
	<text transform="matrix(0.9962 8.715574e-02 -8.715574e-02 0.9962 92.0718 12.0705)" class="st5 st6">Aromas</text>
	<text transform="matrix(0.9397 -0.342 0.342 0.9397 -119.5027 47.752)" class="st5 st6">Bouquet</text>
	<text transform="matrix(0.4226 0.9063 -0.9063 0.4226 -55.8675 -110.3435)" class="st5 st6">Faults</text>
	<text transform="matrix(0.5373 -0.8434 0.8434 0.5373 80.7053 -119.2375)" class="st5 st6">Fruits White Wine</text>
	<text transform="matrix(0.9848 -0.1736 0.1736 0.9848 145.9882 -21.68)" class="st5 st6">Fruits Red Wine</text>
	<text transform="matrix(0.887 0.4617 -0.4617 0.887 149.6817 82.429)" class="st5 st6">Floral</text>
	<text transform="matrix(0.2588 0.9659 -0.9659 0.2588 39.2454 161.9207)" class="st5 st6">Vegetal</text>
	<text transform="matrix(0.3007 -0.9537 0.9537 0.3007 -56.2442 191.6859)" class="st5 st6">Mineral</text>
	<text transform="matrix(0.4617 -0.887 0.887 0.4617 -86.8823 175.5619)" class="st5 st6">Yeast</text>
	<text transform="matrix(0.5736 -0.8192 0.8192 0.5736 -132.3223 195.9496)" class="st5 st6">Malolactic Fermentation</text>
	<text transform="matrix(0.9063 -0.4226 0.4226 0.9063 -185.4575 90.8936)" class="st5 st6">Oak Aging</text>
	<text transform="matrix(0.9962 8.715574e-02 -8.715574e-02 0.9962 -231.9817 -16.2804)" class="st5 st6">Late Harvest / Botrytis</text>
	<text transform="matrix(0.9763 0.2164 -0.2164 0.9763 -209.9216 -42.4414)" class="st5 st6">Fortified Wine</text>
	<text transform="matrix(0.9537 0.3007 -0.3007 0.9537 -212.849 -62.9171)" class="st5 st6">Aged White Wine</text>
	<text transform="matrix(0.866 0.5 -0.5 0.866 -191.0609 -105.6904)" class="st5 st6">Aged Red Wine</text>
	<text transform="matrix(0.7373 0.6756 -0.6756 0.7373 -163.6172 -144.5019)" class="st5 st6">Trichloroanisole</text>
	<text transform="matrix(0.6756 0.7373 -0.7373 0.6756 -138.4483 -145.1696)" class="st5 st6">Oxygen</text>
	<text transform="matrix(0.6088 0.7934 -0.7934 0.6088 -121.2087 -151.3922)" class="st5 st6">Heat</text>
	<text transform="matrix(0.5 0.866 -0.866 0.5 -111.2024 -184.6085)" class="st5 st6">Volatile Acidity</text>
	<text transform="matrix(0.2588 0.9659 -0.9659 0.2588 -55.9177 -193.2331)" class="st5 st6">Sulfides</text>
	<text transform="matrix(4.361939e-02 0.999 -0.999 4.361939e-02 -12.4531 -193.5334)" class="st5 st6">Brett</text>
	<text transform="matrix(0.1736 -0.9848 0.9848 0.1736 46.2417 -239.2147)" class="st5 st6">Citrus</text>
	<text transform="matrix(0.5 -0.866 0.866 0.5 119.898 -199.6696)" class="st5 st6">Tree Fruits</text>
	<text transform="matrix(0.7934 -0.6088 0.6088 0.7934 181.2294 -134.0203)" class="st5 st6">Tropical Fruits</text>
	<text transform="matrix(0.9659 -0.2588 0.2588 0.9659 223.4568 -55.734)" class="st5 st6">Red Berries</text>
	<text transform="matrix(1 0 0 1 232.8678 4)" class="st5 st6">Tree Fruits</text>
	<text transform="matrix(0.9914 0.1305 -0.1305 0.9914 225.5682 33.7311)" class="st5 st6">Honeysuckle</text>
	<text transform="matrix(0.9763 0.2164 -0.2164 0.9763 228.8252 54.8264)" class="st5 st6">Hawthorn</text>
	<text transform="matrix(0.9537 0.3007 -0.3007 0.9537 208.0692 69.798)" class="st5 st6">Orange Blossom</text>
	<text transform="matrix(0.9239 0.3827 -0.3827 0.9239 221.7265 96.1717)" class="st5 st6">Linden</text>
	<text transform="matrix(0.887 0.4617 -0.4617 0.887 209.3048 113.4666)" class="st5 st6">Jasmine</text>
	<text transform="matrix(0.8434 0.5373 -0.5373 0.8434 201.6643 133.217)" class="st5 st6">Acacia</text>
	<text transform="matrix(0.7934 0.6088 -0.6088 0.7934 191.3411 151.8632)" class="st5 st6">Violet</text>
	<text transform="matrix(0.7373 0.6756 -0.6756 0.7373 171.1602 162.2649)" class="st5 st6">Lavender</text>
	<text transform="matrix(0.6756 0.7373 -0.7373 0.6756 162.5664 183.3312)" class="st5 st6">Rose</text>
	<text transform="matrix(0.5736 0.8192 -0.8192 0.5736 129.6976 192.2006)" class="st5 st6">Vegetables</text>
	<text transform="matrix(0.342 0.9397 -0.9397 0.342 74.6181 216.7074)" class="st5 st6">Fresh Herbs</text>
	<text transform="matrix(8.715574e-02 0.9962 -0.9962 8.715574e-02 16.0603 229.4653)" class="st5 st6">Dried Herbs</text>
	<text transform="matrix(8.715574e-02 -0.9962 0.9962 8.715574e-02 -19.7904 272.1006)" class="st5 st6">Leaves</text>
	<text transform="matrix(0.2164 -0.9763 0.9763 0.2164 -60.5409 291.5637)" class="st5 st6">Young White Wine</text>
	<text transform="matrix(0.3007 -0.9537 0.9537 0.3007 -84.9688 282.7885)" class="st5 st6">Aged White Wine</text>
	<text transform="matrix(0.3827 -0.9239 0.9239 0.3827 -107.9111 270.9727)" class="st5 st6">Aged Red Wine</text>
	<text transform="matrix(0.4617 -0.887 0.887 0.4617 -121.1281 241.3481)" class="st5 st6">Bread</text>
	<text transform="matrix(0.5373 -0.8434 0.8434 0.5373 -143.7944 233.157)" class="st5 st6">Yoghurt</text>
	<text transform="matrix(0.6088 -0.7934 0.7934 0.6088 -161.1961 216.6452)" class="st5 st6">Butter</text>
	<text transform="matrix(0.6756 -0.7373 0.7373 0.6756 -182.8442 205.4599)" class="st5 st6">Smoked</text>
	<text transform="matrix(0.7373 -0.6756 0.6756 0.7373 -197.3932 186.3028)" class="st5 st6">Coffee</text>
	<text transform="matrix(0.7934 -0.6088 0.6088 0.7934 -210.7491 166.7551)" class="st5 st6">Toast</text>
	<text transform="matrix(0.9063 -0.4226 0.4226 0.9063 -245.032 118.6739)" class="st5 st6">Woods</text>
	<text transform="matrix(0.9914 -0.1305 0.1305 0.9914 -264.1415 38.8094)" class="st5 st6">Nuts</text>
	<text transform="matrix(0.999 4.361939e-02 -4.361939e-02 0.999 -281.1145 -8.2699)" class="st5 st6">Dry Apricot</text>
	<text transform="matrix(0.9914 0.1305 -0.1305 0.9914 -282.8265 -33.2003)" class="st5 st6">Orange Peel</text>
	<text transform="matrix(0.9763 0.2164 -0.2164 0.9763 -264.4744 -54.5354)" class="st5 st6">Prune</text>
	<text transform="matrix(0.9537 0.3007 -0.3007 0.9537 -259.7743 -77.7125)" class="st5 st6">Honey</text>
	<text transform="matrix(0.9239 0.3827 -0.3827 0.9239 -259.4607 -103.1425)" class="st5 st6">Chocolate</text>
	<text transform="matrix(0.887 0.4617 -0.4617 0.887 -243.0693 -122.0244)" class="st5 st6">Animal</text>
	<text transform="matrix(0.8434 0.5373 -0.5373 0.8434 -232.9217 -143.6448)" class="st5 st6">Leather</text>
	<text transform="matrix(0.7934 0.6088 -0.6088 0.7934 -215.5397 -160.3475)" class="st5 st6">Musk</text>
	<text transform="matrix(0.7373 0.6756 -0.6756 0.7373 -203.8203 -181.3415)" class="st5 st6">Corked</text>
	<text transform="matrix(0.6756 0.7373 -0.7373 0.6756 -186.2999 -197.3898)" class="st5 st6">Sherry</text>
	<text transform="matrix(0.6088 0.7934 -0.7934 0.6088 -170.4186 -215.5235)" class="st5 st6">Madeira</text>
	<text transform="matrix(0.5373 0.8434 -0.8434 0.5373 -157.01 -239.0115)" class="st5 st6">Ethyl Acetate</text>
	<text transform="matrix(0.4617 0.887 -0.887 0.4617 -133.398 -247.5917)" class="st5 st6">Acetic Acid</text>
	<text transform="matrix(0.3827 0.9239 -0.9239 0.3827 -115.7423 -268.9738)" class="st5 st6">Dimethyl Sulfide</text>
	<text transform="matrix(0.3007 0.9537 -0.9537 0.3007 -91.8602 -278.0403)" class="st5 st6">Ethyl Mercaptan</text>
	<text transform="matrix(0.2164 0.9763 -0.9763 0.2164 -67.8207 -287.4387)" class="st5 st6">Hudrogen Sulfide</text>
	<text transform="matrix(0.1305 0.9914 -0.9914 0.1305 -41.5302 -284.808)" class="st5 st6">Sulfer Dioxide</text>
	<text transform="matrix(4.361939e-02 0.999 -0.999 4.361939e-02 -16.4043 -284.0168)" class="st5 st6">Ethyl-phenol</text>
	<text transform="matrix(4.361939e-02 -0.999 0.999 4.361939e-02 17.4209 -307.3012)" class="st5 st6">Grapefruit</text>
	<text transform="matrix(0.1305 -0.9914 0.9914 0.1305 45.044 -311.4974)" class="st5 st6">Lemon</text>
	<text transform="matrix(0.2164 -0.9763 0.9763 0.2164 72.9846 -310.7312)" class="st5 st6">Lime</text>
	<text transform="matrix(0.3007 -0.9537 0.9537 0.3007 95.9435 -290.9918)" class="st5 st6">Mandarine</text>
	<text transform="matrix(0.3827 -0.9239 0.9239 0.3827 125.9392 -293.5918)" class="st5 st6">Pear</text>
	<text transform="matrix(0.4617 -0.887 0.887 0.4617 150.0203 -279.523)" class="st5 st6">Apple</text>
	<text transform="matrix(0.5373 -0.8434 0.8434 0.5373 165.6982 -252.6496)" class="st5 st6">Green Apple</text>
	<text transform="matrix(0.6088 -0.7934 0.7934 0.6088 195.434 -248.1243)" class="st5 st6">Peach</text>
	<text transform="matrix(0.6756 -0.7373 0.7373 0.6756 216.6936 -230.5586)" class="st5 st6">Melon</text>
	<text transform="matrix(0.7373 -0.6756 0.6756 0.7373 235.1427 -210.0434)" class="st5 st6">Guava</text>
	<text transform="matrix(0.7934 -0.6088 0.6088 0.7934 246.5966 -184.178)" class="st5 st6">Pineapple</text>
	<text transform="matrix(0.8434 -0.5373 0.5373 0.8434 255.8606 -158.2586)" class="st5 st6">Passion Fruit</text>
	<text transform="matrix(0.887 -0.4617 0.4617 0.887 280.3392 -141.4257)" class="st5 st6">Lychee</text>
	<text transform="matrix(0.9239 -0.3827 0.3827 0.9239 283.5599 -113.1249)" class="st5 st6">Redcurrant</text>
	<text transform="matrix(0.9537 -0.3007 0.3007 0.9537 289.4274 -87.0621)" class="st5 st6">Blackcurrant</text>
	<text transform="matrix(0.9763 -0.2164 0.2164 0.9763 299.4441 -62.288)" class="st5 st6">Strawberry</text>
	<text transform="matrix(0.9914 -0.1305 0.1305 0.9914 304.2828 -36.0251)" class="st5 st6">Blackberry</text>
	<text transform="matrix(0.999 -4.361939e-02 4.361939e-02 0.999 314.8722 -9.7438)" class="st5 st6">Cherry</text>
	<text transform="matrix(0.999 4.361939e-02 -4.361939e-02 0.999 318.1307 17.8937)" class="st5 st6">Plum</text>
	<text transform="matrix(0.6088 0.7934 -0.7934 0.6088 178.597 239.3234)" class="st5 st6">Green Pepper</text>
	<text transform="matrix(0.5373 0.8434 -0.8434 0.5373 165.074 266.5593)" class="st5 st6">Tomato</text>
	<text transform="matrix(0.4617 0.887 -0.887 0.4617 138.4369 274.5985)" class="st5 st6">Cut Grass</text>
	<text transform="matrix(0.3827 0.9239 -0.9239 0.3827 119.9325 299.9962)" class="st5 st6">Dill</text>
	<text transform="matrix(0.3007 0.9537 -0.9537 0.3007 90.8233 301.3559)" class="st5 st6">Thyme</text>
	<text transform="matrix(0.2164 0.9763 -0.9763 0.2164 65.4752 313.8215)" class="st5 st6">Mint</text>
	<text transform="matrix(0.1305 0.9914 -0.9914 0.1305 36.6651 309.1408)" class="st5 st6">Tabacco</text>
	<text transform="matrix(4.361939e-02 0.999 -0.999 4.361939e-02 10.0098 320.9772)" class="st5 st6">Hay</text>
	<text transform="matrix(4.361939e-02 -0.999 0.999 4.361939e-02 -12.0954 368.732)" class="st5 st6">Blackcurrant Leaf</text>
	<text transform="matrix(0.1305 -0.9914 0.9914 0.1305 -42.3003 351.9479)" class="st5 st6">Eucalyptus</text>
	<text transform="matrix(0.2164 -0.9763 0.9763 0.2164 -69.5643 332.2649)" class="st5 st6">Flint</text>
	<text transform="matrix(0.3007 -0.9537 0.9537 0.3007 -101.8543 336.3422)" class="st5 st6">Kerosene</text>
	<text transform="matrix(0.3827 -0.9239 0.9239 0.3827 -125.2844 312.916)" class="st5 st6">Tar</text>
	<text transform="matrix(0.8434 -0.5373 0.5373 0.8434 -284.6101 186.0593)" class="st5 st6">Pine</text>
	<text transform="matrix(0.887 -0.4617 0.4617 0.887 -302.9459 162.2135)" class="st5 st6">Cedar</text>
	<text transform="matrix(0.9239 -0.3827 0.3827 0.9239 -328.7766 140.5133)" class="st5 st6">Sandalwood</text>
	<text transform="matrix(0.9537 -0.3007 0.3007 0.9537 -322.2693 105.8053)" class="st5 st6">Oak</text>
	<text transform="matrix(0.9763 -0.2164 0.2164 0.9763 -337.8632 78.9996)" class="st5 st6">Almond</text>
	<text transform="matrix(0.9914 -0.1305 0.1305 0.9914 -346.2198 49.6152)" class="st5 st6">Hazelnut</text>
	<text transform="matrix(0.999 -4.361939e-02 4.361939e-02 0.999 -348.1168 19.2029)" class="st5 st6">Coconut</text>
	<text transform="matrix(0.5373 0.8434 -0.8434 0.5373 -207.0725 -318.042)" class="st5 st6">Nail Polish Remover</text>
	<text transform="matrix(0.4617 0.887 -0.887 0.4617 -163.8414 -306.0731)" class="st5 st6">Vinegar</text>
	<text transform="matrix(0.3827 0.9239 -0.9239 0.3827 -139.9777 -327.4841)" class="st5 st6">Sweet Corn</text>
	<text transform="matrix(0.3007 0.9537 -0.9537 0.3007 -107.0595 -326.2486)" class="st5 st6">Onion</text>
	<text transform="matrix(0.2164 0.9763 -0.9763 0.2164 -80.7445 -345.736)" class="st5 st6">Rotten Egg</text>
	<text transform="matrix(0.1305 0.9914 -0.9914 0.1305 -49.1797 -342.9134)" class="st5 st6">Rubber</text>
	<text transform="matrix(4.361939e-02 0.999 -0.999 4.361939e-02 -19.6387 -358.1146)" class="st5 st6">Old band-aid</text>
	<text transform="matrix(4.361939e-02 -0.999 0.999 4.361939e-02 20.8616 -386.1059)" class="st5 st6">712000</text>
	<text transform="matrix(0.1305 -0.9914 0.9914 0.1305 54.0706 -380.0618)" class="st5 st6">5040000</text>
	<text transform="matrix(0.2164 -0.9763 0.9763 0.2164 86.9894 -373.9031)" class="st5 st6">2920000</text>
	<text transform="matrix(0.3007 -0.9537 0.9537 0.3007 120.9186 -370.2028)" class="st5 st6">26200</text>
	<text transform="matrix(0.3827 -0.9239 0.9239 0.3827 150.5955 -353.1172)" class="st5 st6">1050000</text>
	<text transform="matrix(0.4617 -0.887 0.887 0.4617 182.0826 -341.1148)" class="st5 st6">122000</text>
	<text transform="matrix(0.5373 -0.8434 0.8434 0.5373 211.1199 -323.9475)" class="st5 st6">955000</text>
	<text transform="matrix(0.6088 -0.7934 0.7934 0.6088 236.8574 -302.1077)" class="st5 st6">1560000</text>
	<text transform="matrix(0.6756 -0.7373 0.7373 0.6756 264.1653 -282.3648)" class="st5 st6">539000</text>
	<text transform="matrix(0.7373 -0.6756 0.6756 0.7373 287.7696 -258.267)" class="st5 st6">151000</text>
	<text transform="matrix(0.7934 -0.6088 0.6088 0.7934 306.978 -230.5106)" class="st5 st6">2050000</text>
	<text transform="matrix(0.8434 -0.5373 0.5373 0.8434 328.2454 -204.3728)" class="st5 st6">926000</text>
	<text transform="matrix(0.887 -0.4617 0.4617 0.887 344.8087 -174.9865)" class="st5 st6">107000</text>
	<text transform="matrix(0.9239 -0.3827 0.3827 0.9239 361.3167 -145.3326)" class="st5 st6">38000</text>
	<text transform="matrix(0.9537 -0.3007 0.3007 0.9537 372.6083 -113.2889)" class="st5 st6">81900</text>
	<text transform="matrix(0.9763 -0.2164 0.2164 0.9763 375.6346 -79.1791)" class="st5 st6">2320000</text>
	<text transform="matrix(0.9914 -0.1305 0.1305 0.9914 383.8631 -46.502)" class="st5 st6">630000</text>
	<text transform="matrix(0.999 -4.361939e-02 4.361939e-02 0.999 383.6771 -12.7479)" class="st5 st6">2400000</text>
	<text transform="matrix(0.999 4.361939e-02 -4.361939e-02 0.999 386.1063 20.8616)" class="st5 st6">945000</text>
	<text transform="matrix(0.9914 0.1305 -0.1305 0.9914 385.5759 54.7965)" class="st5 st6">86100</text>
	<text transform="matrix(0.9763 0.2164 -0.2164 0.9763 379.3328 88.1931)" class="st5 st6">80100</text>
	<text transform="matrix(0.9537 0.3007 -0.3007 0.9537 362.2465 118.4101)" class="st5 st6">35300000</text>
	<text transform="matrix(0.9239 0.3827 -0.3827 0.9239 358.2554 152.7237)" class="st5 st6">72100</text>
	<text transform="matrix(0.887 0.4617 -0.4617 0.887 341.1148 182.0826)" class="st5 st6">399000</text>
	<text transform="matrix(0.8434 0.5373 -0.5373 0.8434 326.2922 212.614)" class="st5 st6">79200</text>
	<text transform="matrix(0.7934 0.6088 -0.6088 0.7934 304.3143 238.5502)" class="st5 st6">255000</text>
	<text transform="matrix(0.7373 0.6756 -0.6756 0.7373 282.3653 264.1653)" class="st5 st6">484000</text>
	<text transform="matrix(0.6756 0.7373 -0.7373 0.6756 258.2665 287.7696)" class="st5 st6">123000</text>
	<text transform="matrix(0.6088 0.7934 -0.7934 0.6088 228.8177 304.7719)" class="st5 st6">34800000</text>
	<text transform="matrix(0.5373 0.8434 -0.8434 0.5373 202.8787 325.9001)" class="st5 st6">3980000</text>
	<text transform="matrix(0.4617 0.887 -0.887 0.4617 172.4184 339.8756)" class="st5 st6">34400000</text>
	<text transform="matrix(0.3827 0.9239 -0.9239 0.3827 143.3465 356.5214)" class="st5 st6">1130000</text>
	<text transform="matrix(0.3007 0.9537 -0.9537 0.3007 111.6163 367.3043)" class="st5 st6">1860000</text>
	<text transform="matrix(0.2164 0.9763 -0.9763 0.2164 79.1793 375.6346)" class="st5 st6">1860000</text>
	<text transform="matrix(0.1305 0.9914 -0.9914 0.1305 46.8653 386.62)" class="st5 st6">22800</text>
	<text transform="matrix(4.361939e-02 0.999 -0.999 4.361939e-02 12.8692 386.4552)" class="st5 st6">180000</text>
	<text transform="matrix(4.361939e-02 -0.999 0.999 4.361939e-02 -14.5673 425.3492)" class="st5 st6">34200000</text>
	<text transform="matrix(0.1305 -0.9914 0.9914 0.1305 -50.4946 414.1901)" class="st5 st6">80100</text>
	<text transform="matrix(0.2164 -0.9763 0.9763 0.2164 -86.4015 408.2131)" class="st5 st6">95100</text>
	<text transform="matrix(0.3007 -0.9537 0.9537 0.3007 -121.6507 399.1293)" class="st5 st6">35300</text>
	<text transform="matrix(0.3827 -0.9239 0.9239 0.3827 -155.9743 387.0078)" class="st5 st6">96100</text>
	<text transform="matrix(0.4617 -0.887 0.887 0.4617 -191.6787 376.8744)" class="st5 st6">5600000</text>
	<text transform="matrix(0.5373 -0.8434 0.8434 0.5373 -222.302 356.3885)" class="st5 st6">244000</text>
	<text transform="matrix(0.6088 -0.7934 0.7934 0.6088 -254.21 337.864)" class="st5 st6">5880000</text>
	<text transform="matrix(0.6756 -0.7373 0.7373 0.6756 -282.6895 314.4218)" class="st5 st6">2290000</text>
	<text transform="matrix(0.7373 -0.6756 0.6756 0.7373 -306.9674 286.709)" class="st5 st6">160000</text>
	<text transform="matrix(0.7934 -0.6088 0.6088 0.7934 -332.9937 260.5568)" class="st5 st6">2620000</text>
	<text transform="matrix(0.8434 -0.5373 0.5373 0.8434 -352.0903 229.049)" class="st5 st6">943000</text>
	<text transform="matrix(0.887 -0.4617 0.4617 0.887 -370.7135 197.4908)" class="st5 st6">383000</text>
	<text transform="matrix(0.9239 -0.3827 0.3827 0.9239 -383.9462 163.3654)" class="st5 st6">44700</text>
	<text transform="matrix(0.9537 -0.3007 0.3007 0.9537 -399.3753 130.1166)" class="st5 st6">234000</text>
	<text transform="matrix(0.9763 -0.2164 0.2164 0.9763 -411.9109 95.4155)" class="st5 st6">1860000</text>
	<text transform="matrix(0.9914 -0.1305 0.1305 0.9914 -415.9025 58.7891)" class="st5 st6">429000</text>
	<text transform="matrix(0.999 -4.361939e-02 4.361939e-02 0.999 -422.2218 22.4384)" class="st5 st6">2690000</text>
	<text transform="matrix(0.999 4.361939e-02 -4.361939e-02 0.999 -425.3488 -14.5673)" class="st5 st6">34200000</text>
	<text transform="matrix(0.9914 0.1305 -0.1305 0.9914 -422.4606 -51.5835)" class="st5 st6">34900000</text>
	<text transform="matrix(0.9763 0.2164 -0.2164 0.9763 -410.9275 -87.0033)" class="st5 st6">107000</text>
	<text transform="matrix(0.9537 0.3007 -0.3007 0.9537 -404.433 -123.3231)" class="st5 st6">3930000</text>
	<text transform="matrix(0.9239 0.3827 -0.3827 0.9239 -389.5767 -157.0383)" class="st5 st6">144000</text>
	<text transform="matrix(0.887 0.4617 -0.4617 0.887 -374.4076 -190.3947)" class="st5 st6">174000</text>
	<text transform="matrix(0.8434 0.5373 -0.5373 0.8434 -356.3885 -222.302)" class="st5 st6">191000</text>
	<text transform="matrix(0.7934 0.6088 -0.6088 0.7934 -333.4514 -250.8245)" class="st5 st6">71600</text>
	<text transform="matrix(0.7373 0.6756 -0.6756 0.7373 -310.3217 -278.9321)" class="st5 st6">64300</text>
	<text transform="matrix(0.6756 0.7373 -0.7373 0.6756 -288.337 -308.744)" class="st5 st6">1140000</text>
	<text transform="matrix(0.6088 0.7934 -0.7934 0.6088 -258.864 -330.7877)" class="st5 st6">230000</text>
	<text transform="matrix(0.5373 0.8434 -0.8434 0.5373 -232.0373 -356.7808)" class="st5 st6">34500000</text>
	<text transform="matrix(0.4617 0.887 -0.887 0.4617 -198.775 -373.1801)" class="st5 st6">3470000</text>
	<text transform="matrix(0.3827 0.9239 -0.9239 0.3827 -166.5578 -391.6535)" class="st5 st6">35600000</text>
	<text transform="matrix(0.3007 0.9537 -0.9537 0.3007 -130.953 -402.0274)" class="st5 st6">4740000</text>
	<text transform="matrix(0.2164 0.9763 -0.9763 0.2164 -96.017 -414.6257)" class="st5 st6">34300000</text>
	<text transform="matrix(0.1305 0.9914 -0.9914 0.1305 -58.789 -415.9025)" class="st5 st6">236000</text>
	<text transform="matrix(4.361939e-02 0.999 -0.999 4.361939e-02 -22.5605 -424.9999)" class="st5 st6">34200000</text>
</g>
</svg>
